HIERARCHY
ROOT Hips
{
	OFFSET 0.000000 0.000000 0.000000 
	CHANNELS 6 Xposition Yposition Zposition Zrotation Yrotation Xrotation
	JOINT LeftUpLeg
	{
		OFFSET 1.363060 -1.794630 0.839290 
		CHANNELS 3 Zrotation Yrotation Xrotation
		JOINT LeftLeg
		{
			OFFSET 2.448110 -6.726130 0.000000 
			CHANNELS 3 Zrotation Yrotation Xrotation
			JOINT LeftFoot
			{
				OFFSET 2.562200 -7.039590 0.000000 
				CHANNELS 3 Zrotation Yrotation Xrotation
				JOINT LeftToeBase
				{
					OFFSET 0.157640 -0.433110 2.322550 
					CHANNELS 3 Zrotation Yrotation Xrotation
					End Site
					{
						OFFSET 0.000000 0.000000 0.000000 
					}
				}
			}
		}
	}
	JOINT RightUpLeg
	{
		OFFSET -1.305520 -1.794630 0.839290 
		CHANNELS 3 Zrotation Yrotation Xrotation
		JOINT RightLeg
		{
			OFFSET -2.542530 -6.985550 0.000000 
			CHANNELS 3 Zrotation Yrotation Xrotation
			JOINT RightFoot
			{
				OFFSET -2.568260 -7.056230 0.000000 
				CHANNELS 3 Zrotation Yrotation Xrotation
				JOINT RightToeBase
				{
					OFFSET -0.164730 -0.452590 2.363150 
					CHANNELS 3 Zrotation Yrotation Xrotation
					End Site
					{
						OFFSET 0.000000 0.000000 0.000000 
					}
				}
			}
		}
	}
	JOINT Spine
	{
		OFFSET 0.028270 2.035590 -0.193380 
		CHANNELS 3 Zrotation Yrotation Xrotation
		JOINT Spine1
		{
			OFFSET 0.056720 2.048850 -0.042750 
			CHANNELS 3 Zrotation Yrotation Xrotation
			JOINT Neck1
			{
				OFFSET -0.054170 1.746240 0.172020 
				CHANNELS 3 Zrotation Yrotation Xrotation
				JOINT Head
				{
					OFFSET 0.104070 1.761360 -0.123970 
					CHANNELS 3 Zrotation Yrotation Xrotation
					End Site
					{
						OFFSET 0.000000 0.000000 0.000000 
					}
				}
			}
			JOINT LeftArm
			{
				OFFSET 3.362410 1.200890 -0.311210 
				CHANNELS 3 Zrotation Yrotation Xrotation
				JOINT LeftForeArm
				{
					OFFSET 4.983000 -0.000000 -0.000000 
					CHANNELS 3 Zrotation Yrotation Xrotation
					JOINT LeftHand
					{
						OFFSET 3.483560 -0.000000 -0.000000 
						CHANNELS 3 Zrotation Yrotation Xrotation
						JOINT LeftFingerBase
						{
							OFFSET 0.000000 0.000000 0.000000 
							CHANNELS 3 Zrotation Yrotation Xrotation
							End Site
							{
								OFFSET 0.000000 0.000000 0.000000 
							}
						}
					}
				}
			}
			JOINT RightArm
			{
				OFFSET -3.136600 1.374050 -0.404650 
				CHANNELS 3 Zrotation Yrotation Xrotation
				JOINT RightForeArm
				{
					OFFSET -5.241900 -0.000000 -0.000000 
					CHANNELS 3 Zrotation Yrotation Xrotation
					JOINT RightHand
					{
						OFFSET -3.444170 -0.000000 -0.000000 
						CHANNELS 3 Zrotation Yrotation Xrotation
						JOINT RightFingerBase
						{
							OFFSET 0.000000 0.000000 0.000000 
							CHANNELS 3 Zrotation Yrotation Xrotation
							End Site
							{
								OFFSET 0.000000 0.000000 0.000000 
							}
						}
					}
				}
			}
		}
	}
}
MOTION
Frames: 6
Frame Time: 0.008333
0.383414 16.863363 -1.810240 -1.405944 0.763194 0.967095 -4.419777 11.435671 -6.323968 -4.485029 13.618127 -16.234875 17.981369 0.050687 0.040779 9.848018 -18.443450 21.095861 27.889242 9.480760 -11.057240 10.611138 -0.747778 -12.739357 22.898384 6.114755 -16.706309 11.238311 20.357938 -19.073132 16.871357 -20.072864 7.718704 -20.887509 15.370591 38.478455 26.705560 -11.145257 -2.832596 13.557658 -15.766696 32.103994 -25.095924 -23.567069 15.923863 16.764490 -13.872174 -38.305574 -8.547492 4.101308 19.915685 0.316336 -8.303648 9.731649 3.703337 16.390468 -12.908357 8.522280 -1.364772 -48.192155 7.297836 10.049082 21.066936 7.943993 -11.289238 -19.117656
0.384219 16.860359 -1.812312 -1.382242 0.698862 0.974557 -29.524503 26.172562 -2.337830 -17.007449 1.904742 18.222138 4.036143 -17.285947 -14.507058 20.891201 16.613743 18.158764 14.999949 10.427678 -19.941349 -14.883368 -13.747392 -5.976663 12.226482 3.014264 -0.203902 -4.678322 20.533981 6.083774 18.486771 -15.204940 -28.386228 10.944215 -6.914359 10.705458 -8.349842 12.401210 14.499706 0.354737 8.643970 0.031284 -17.895733 -14.033892 -5.566950 21.904929 -13.540008 -48.935588 26.710456 10.083713 -11.846659 2.366113 -18.177369 15.128423 29.215102 21.179089 -6.770697 -33.988496 2.881788 -24.211236 -11.161846 -21.889866 1.308395 16.674339 -6.708550 -0.165041
0.383318 16.859610 -1.817252 -1.379972 0.747692 0.969901 -34.908440 12.556220 -0.115866 -18.729573 7.835680 23.075590 4.892679 -8.395339 4.604328 8.249538 -15.316969 -9.539896 44.482876 -24.448971 17.494157 -9.510151 -5.062444 -14.947042 3.121983 2.745145 -19.575406 -3.625978 -6.072303 8.876213 -11.528908 9.701344 -13.558463 9.751728 -21.841981 3.951090 25.398790 2.112579 11.617645 -11.354969 4.761219 -5.316509 -22.728256 -21.645837 -18.865717 -13.542928 -2.677549 -19.440347 31.417607 16.488812 -4.322937 1.385580 -17.283225 -16.933599 30.663636 -11.268693 -19.605432 -28.336627 -6.671627 -59.792684 -23.406986 1.926350 3.840627 12.558824 4.735159 19.408803
0.356057 16.859459 -1.857883 -1.507605 2.088009 1.460795 -16.032895 -2.092866 -23.928403 -21.024033 14.592896 6.723279 20.705179 -11.552548 -18.320187 -6.268562 -13.888600 3.704615 15.602321 -8.290835 -12.995067 -7.062944 1.831338 8.460378 -12.053015 22.578814 -14.282718 8.894854 -10.760656 15.599455 -7.020995 10.977929 -22.170581 -19.016455 10.504592 14.756555 2.284708 -10.801834 30.507847 4.141248 -16.102856 4.997779 -11.465648 5.188678 -2.539383 24.931314 -17.012241 -21.324072 -3.418700 9.438248 11.300441 -13.100404 -0.224222 -19.029841 17.829522 -1.213348 -20.383060 -17.814066 12.610195 -31.230400 -15.034355 -32.701875 -16.131775 11.249881 20.698391 -17.916977
0.359751 16.856756 -1.922252 -1.278687 2.231196 1.264987 -32.466067 -13.071871 -21.150117 -19.441664 -19.094622 9.580677 13.365766 18.354845 4.539986 2.922933 2.558356 19.630258 45.739393 17.077327 -0.698382 5.553604 14.538061 2.017868 -7.913421 6.242659 -24.926227 14.419610 15.151485 -18.772282 -8.797607 1.047039 -15.747122 11.212790 -20.729594 34.708350 -11.646531 9.854045 22.701882 7.984215 -4.621261 -2.398945 -33.482524 1.563057 11.192447 10.619114 -25.891618 -42.820929 -12.308642 20.243813 11.971138 -5.366655 21.084194 9.190202 -4.389037 12.370358 -16.325111 -21.118123 23.993632 -22.382704 5.684399 -18.336432 4.946088 -18.084370 -18.805502 14.550074
0.359407 16.847298 -1.953003 -0.998498 2.128874 0.968043 -37.521980 8.684363 20.015714 7.920288 -7.371348 8.361385 11.105386 12.280162 -1.391805 -9.585658 -22.637469 1.684504 7.969475 14.377536 17.823467 2.948426 -9.975710 -18.390573 -19.269093 22.578955 -13.187009 17.513038 -13.226592 -22.123149 -19.127033 4.498340 2.317716 16.936897 3.874939 11.812313 -13.336228 -22.488012 4.616163 -22.174768 17.776820 -6.174603 -13.046227 14.274859 -0.504997 6.921110 -24.830749 -49.684111 11.579175 12.362626 -9.734131 17.676692 8.540240 13.874134 5.634293 8.739668 -20.097878 -6.531917 17.511712 -41.086087 -24.198089 -16.062109 -6.048628 -6.592788 2.713623 -13.295988
